<svg width="428" height="127" viewBox="0 0 428 127" fill="none" xmlns="http://www.w3.org/2000/svg">
<g clip-path="url(#clip0_144_3)">
<path d="M71.4274 107.55C65.7594 111.91 57.8751 114.09 47.7744 114.09C37.4558 114.09 29.0991 110.675 22.7044 103.844C16.3098 96.9407 13.1124 88.3297 13.1124 78.011C13.1124 71.471 14.4931 65.4033 17.2544 59.808C20.0158 54.14 23.9034 49.5983 28.9174 46.183C33.9314 42.7677 39.8901 41.06 46.7934 41.06C52.6794 41.06 57.5844 41.823 61.5084 43.349C65.5051 44.875 68.9568 46.8733 71.8634 49.344L73.8254 62.969L66.9584 63.623L64.9964 53.268C62.6711 51.742 60.1641 50.543 57.4754 49.671C54.7868 48.7263 51.4441 48.254 47.4474 48.254C39.6721 48.254 33.3864 51.0153 28.5904 56.538C23.8671 62.0607 21.5054 69.1093 21.5054 77.684C21.5054 86.4767 23.9398 93.5617 28.8084 98.939C33.7498 104.244 40.4351 106.896 48.8644 106.896C55.0411 106.896 60.2368 105.842 64.4514 103.735L66.5224 93.271L73.2804 93.925L71.4274 107.55ZM136.553 113H83.7972V106.024H92.7352V49.126H83.7972V42.15H135.572L137.752 62.206L130.776 62.969L128.596 49.126H100.692V73.542H134.155V80.518H100.692V106.024H129.577L131.757 92.181L138.624 92.944L136.553 113ZM219.926 49.126H211.097V113H205.974L164.881 57.192H164.445V106.024H175.672V113H148.64V106.024H156.815V49.126H147.441V42.15H162.701L203.031 96.759H203.467V49.126H192.785V42.15H219.926V49.126ZM277.182 93.162C277.182 99.9927 274.748 105.188 269.879 108.749C265.083 112.31 259.088 114.09 251.894 114.09C242.011 114.09 234.418 112.164 229.113 108.313L230.639 94.361L237.179 95.015L236.743 103.953C239.141 105.188 241.539 106.024 243.937 106.46C246.335 106.896 248.842 107.114 251.458 107.114C256.109 107.114 260.105 106.133 263.448 104.171C266.863 102.136 268.571 98.721 268.571 93.925C268.571 88.5477 266.718 85.0597 263.012 83.461C259.306 81.7897 255.273 80.4453 250.913 79.428C247.57 78.7013 244.264 77.793 240.994 76.703C237.724 75.5403 234.999 73.76 232.819 71.362C230.639 68.8913 229.549 65.3307 229.549 60.68C229.549 53.9947 231.765 49.0533 236.198 45.856C240.703 42.6587 246.008 41.06 252.112 41.06C256.036 41.06 259.996 41.605 263.993 42.695C267.99 43.785 271.114 45.202 273.367 46.946L274.021 61.007L267.481 61.661L266.391 51.088C264.138 49.9253 261.849 49.1623 259.524 48.799C257.199 48.363 254.982 48.145 252.875 48.145C248.442 48.145 244.845 49.1623 242.084 51.197C239.395 53.159 238.051 56.0293 238.051 59.808C238.051 64.2407 239.686 67.22 242.956 68.746C246.226 70.272 249.859 71.5073 253.856 72.452C257.053 73.1787 260.432 74.1233 263.993 75.286C267.626 76.376 270.715 78.3017 273.258 81.063C275.874 83.7517 277.182 87.7847 277.182 93.162ZM356.011 49.126H349.144V83.897C349.144 88.911 348.272 93.7433 346.528 98.394C344.857 102.972 341.95 106.751 337.808 109.73C333.739 112.637 328.071 114.09 320.804 114.09C310.267 114.09 303.001 111.183 299.004 105.37C295.08 99.484 293.118 92.726 293.118 85.096V49.126H285.815V42.15H310.994V49.126H301.184V84.878C301.184 91.854 302.819 97.2677 306.089 101.119C309.359 104.97 314.409 106.896 321.24 106.896C334.829 106.896 341.623 99.2297 341.623 83.897V49.126H331.486V42.15H356.011V49.126ZM413.538 93.162C413.538 99.9927 411.104 105.188 406.235 108.749C401.439 112.31 395.444 114.09 388.25 114.09C378.368 114.09 370.774 112.164 365.469 108.313L366.995 94.361L373.535 95.015L373.099 103.953C375.497 105.188 377.895 106.024 380.293 106.46C382.691 106.896 385.198 107.114 387.814 107.114C392.465 107.114 396.462 106.133 399.804 104.171C403.22 102.136 404.927 98.721 404.927 93.925C404.927 88.5477 403.074 85.0597 399.368 83.461C395.662 81.7897 391.629 80.4453 387.269 79.428C383.927 78.7013 380.62 77.793 377.35 76.703C374.08 75.5403 371.355 73.76 369.175 71.362C366.995 68.8913 365.905 65.3307 365.905 60.68C365.905 53.9947 368.122 49.0533 372.554 45.856C377.06 42.6587 382.364 41.06 388.468 41.06C392.392 41.06 396.353 41.605 400.349 42.695C404.346 43.785 407.471 45.202 409.723 46.946L410.377 61.007L403.837 61.661L402.747 51.088C400.495 49.9253 398.206 49.1623 395.88 48.799C393.555 48.363 391.339 48.145 389.231 48.145C384.799 48.145 381.202 49.1623 378.44 51.197C375.752 53.159 374.407 56.0293 374.407 59.808C374.407 64.2407 376.042 67.22 379.312 68.746C382.582 70.272 386.216 71.5073 390.212 72.452C393.41 73.1787 396.789 74.1233 400.349 75.286C403.983 76.376 407.071 78.3017 409.614 81.063C412.23 83.7517 413.538 87.7847 413.538 93.162Z" fill="white"/>
<path d="M87.9479 16.892L86.0629 17.037L85.4829 13.006H80.6109V28.144H83.9459V30H75.2459V28.144H78.4939V13.006H73.6219L73.0419 17.037L71.1859 16.892L71.7369 11.15H87.3679L87.9479 16.892ZM106.569 30H100.015V28.347H102.277V22.344C102.277 20.952 101.987 19.9757 101.407 19.415C100.847 18.835 100.122 18.545 99.2323 18.545C98.111 18.545 97.1927 18.9317 96.4773 19.705C95.7813 20.459 95.414 21.3097 95.3753 22.257V28.347H97.6083V30H91.0833V28.347H93.3163V11.701H91.0833V10.048H95.3753V19.415C96.3227 17.6943 97.8307 16.834 99.8993 16.834C101.156 16.834 102.21 17.2207 103.06 17.994C103.911 18.7673 104.336 20.0143 104.336 21.735V28.347H106.569V30ZM121.463 26.288C121.289 27.39 120.738 28.3373 119.81 29.13C118.882 29.9033 117.625 30.29 116.04 30.29C114.223 30.29 112.753 29.7197 111.632 28.579C110.511 27.4383 109.95 25.824 109.95 23.736C109.95 21.7253 110.482 20.0723 111.545 18.777C112.608 17.4817 114.049 16.834 115.866 16.834C117.645 16.834 118.998 17.3947 119.926 18.516C120.854 19.6373 121.328 20.9617 121.347 22.489C121.347 22.9917 121.289 23.504 121.173 24.026H112.096C112.212 27.042 113.575 28.55 116.185 28.55C117.21 28.55 118.012 28.3083 118.592 27.825C119.172 27.3417 119.559 26.7037 119.752 25.911L121.463 26.288ZM119.201 22.518C119.298 21.5513 119.066 20.6427 118.505 19.792C117.964 18.9413 117.065 18.516 115.808 18.516C114.609 18.516 113.73 18.9123 113.169 19.705C112.608 20.4977 112.26 21.4353 112.125 22.518H119.201ZM152.385 20.546C152.385 23.3107 151.535 25.5823 149.833 27.361C148.151 29.1203 145.822 30 142.844 30H134.318V28.173H136.696V12.977H134.318V11.15H142.757C145.831 11.15 148.2 12.0393 149.862 13.818C151.544 15.5773 152.385 17.82 152.385 20.546ZM150.123 20.575C150.123 18.2937 149.485 16.457 148.209 15.065C146.953 13.673 145.126 12.977 142.728 12.977H138.813V28.173H142.728C145.126 28.173 146.953 27.4963 148.209 26.143C149.485 24.7703 150.123 22.9143 150.123 20.575ZM158.623 13.76V11.121H160.827V13.76H158.623ZM163.118 30H156.564V28.347H158.826V18.748H156.506V17.095H160.856V28.347H163.118V30ZM181.134 18.748H179.046V29.826C179.046 31.856 178.486 33.4703 177.364 34.669C176.262 35.8677 174.706 36.467 172.695 36.467C171.342 36.467 170.124 36.1577 169.041 35.539C167.978 34.9203 167.272 33.9633 166.924 32.668L168.548 31.856C168.877 32.8613 169.447 33.5863 170.259 34.031C171.071 34.495 171.912 34.727 172.782 34.727C174.02 34.727 175.025 34.292 175.798 33.422C176.591 32.5713 176.987 31.3437 176.987 29.739V27.361C176.601 28.115 176.04 28.7723 175.305 29.333C174.571 29.8937 173.594 30.174 172.376 30.174C170.849 30.174 169.544 29.6327 168.461 28.55C167.379 27.4673 166.837 25.911 166.837 23.881C166.837 22.1603 167.301 20.5557 168.229 19.067C169.157 17.5783 170.617 16.834 172.608 16.834C174.658 16.834 176.117 17.5977 176.987 19.125V17.095H181.134V18.748ZM176.987 24.432V22.199C176.987 21.1163 176.61 20.2463 175.856 19.589C175.122 18.9123 174.223 18.574 173.159 18.574C171.709 18.574 170.656 19.096 169.998 20.14C169.36 21.184 169.041 22.3827 169.041 23.736C169.041 25.3213 169.399 26.5007 170.114 27.274C170.849 28.0473 171.748 28.434 172.811 28.434C174.049 28.434 175.044 28.0087 175.798 27.158C176.552 26.3073 176.949 25.3987 176.987 24.432ZM186.698 13.76V11.121H188.902V13.76H186.698ZM191.193 30H184.639V28.347H186.901V18.748H184.581V17.095H188.931V28.347H191.193V30ZM204.425 26.52C204.077 29.0333 202.714 30.29 200.336 30.29C199.041 30.29 198.045 29.9227 197.349 29.188C196.672 28.4533 196.334 27.4577 196.334 26.201V18.719H194.246V17.095H196.334V12.948H198.364V17.095H203.41V18.719H198.364V25.94C198.364 26.7133 198.528 27.3417 198.857 27.825C199.205 28.289 199.766 28.521 200.539 28.521C201.042 28.521 201.506 28.3663 201.931 28.057C202.376 27.7477 202.695 27.071 202.888 26.027L204.425 26.52ZM208.952 18.081C209.628 17.6363 210.344 17.3173 211.098 17.124C211.852 16.9307 212.654 16.834 213.505 16.834C216.579 16.834 218.116 18.2743 218.116 21.155V27.303C218.116 28.231 218.483 28.695 219.218 28.695C219.546 28.695 219.836 28.637 220.088 28.521L220.117 29.855C219.595 30.145 219.034 30.29 218.435 30.29C216.907 30.29 216.124 29.42 216.086 27.68V27.622C215.68 28.318 215.1 28.9367 214.346 29.478C213.611 30.0193 212.722 30.29 211.678 30.29C210.827 30.29 209.957 30.029 209.068 29.507C208.198 28.985 207.763 28.0377 207.763 26.665C207.763 25.041 208.401 23.9777 209.677 23.475C210.972 22.953 212.345 22.692 213.795 22.692C214.181 22.692 214.568 22.7017 214.955 22.721C215.361 22.7403 215.738 22.7693 216.086 22.808V21.648C216.086 20.72 215.883 19.966 215.477 19.386C215.09 18.806 214.317 18.516 213.157 18.516C212.209 18.516 211.378 18.69 210.663 19.038L210.17 21.271L208.488 21.068L208.952 18.081ZM216.086 25.157V24.171C215.718 24.1517 215.332 24.1227 214.926 24.084C214.52 24.0453 214.104 24.026 213.679 24.026C212.712 24.026 211.832 24.1807 211.04 24.49C210.266 24.78 209.88 25.4277 209.88 26.433C209.88 27.2643 210.141 27.8347 210.663 28.144C211.185 28.4533 211.726 28.608 212.287 28.608C213.176 28.608 214.007 28.2987 214.781 27.68C215.573 27.0613 216.008 26.2203 216.086 25.157ZM229.785 30H223.231V28.347H225.493V11.701H223.202V10.048H227.523V28.347H229.785V30ZM255.804 30H242.203V28.144H244.581V13.006H242.203V11.15H249.859V13.006H246.698V28.144H253.919L254.499 23.823L256.384 23.968L255.804 30ZM261.863 13.76V11.121H264.067V13.76H261.863ZM266.358 30H259.804V28.347H262.066V18.748H259.746V17.095H264.096V28.347H266.358V30ZM279.589 26.52C279.241 29.0333 277.878 30.29 275.5 30.29C274.205 30.29 273.209 29.9227 272.513 29.188C271.837 28.4533 271.498 27.4577 271.498 26.201V18.719H269.41V17.095H271.498V12.948H273.528V17.095H278.574V18.719H273.528V25.94C273.528 26.7133 273.693 27.3417 274.021 27.825C274.369 28.289 274.93 28.521 275.703 28.521C276.206 28.521 276.67 28.3663 277.095 28.057C277.54 27.7477 277.859 27.071 278.052 26.027L279.589 26.52ZM294.382 26.288C294.208 27.39 293.657 28.3373 292.729 29.13C291.801 29.9033 290.544 30.29 288.959 30.29C287.142 30.29 285.672 29.7197 284.551 28.579C283.43 27.4383 282.869 25.824 282.869 23.736C282.869 21.7253 283.401 20.0723 284.464 18.777C285.527 17.4817 286.968 16.834 288.785 16.834C290.564 16.834 291.917 17.3947 292.845 18.516C293.773 19.6373 294.247 20.9617 294.266 22.489C294.266 22.9917 294.208 23.504 294.092 24.026H285.015C285.131 27.042 286.494 28.55 289.104 28.55C290.129 28.55 290.931 28.3083 291.511 27.825C292.091 27.3417 292.478 26.7037 292.671 25.911L294.382 26.288ZM292.12 22.518C292.217 21.5513 291.985 20.6427 291.424 19.792C290.883 18.9413 289.984 18.516 288.727 18.516C287.528 18.516 286.649 18.9123 286.088 19.705C285.527 20.4977 285.179 21.4353 285.044 22.518H292.12ZM305.655 16.863C306.583 16.863 307.318 17.0853 307.859 17.53L308.352 20.778L306.699 20.981L306.206 18.777C305.878 18.661 305.549 18.603 305.22 18.603C304.466 18.603 303.838 18.922 303.335 19.56C302.833 20.1787 302.581 20.9907 302.581 21.996V28.347H305.568V30H298.289V28.347H300.551V18.748H298.231V17.095H302.465V19.415C302.717 18.6997 303.123 18.1003 303.683 17.617C304.263 17.1143 304.921 16.863 305.655 16.863ZM313.976 18.081C314.653 17.6363 315.368 17.3173 316.122 17.124C316.876 16.9307 317.678 16.834 318.529 16.834C321.603 16.834 323.14 18.2743 323.14 21.155V27.303C323.14 28.231 323.507 28.695 324.242 28.695C324.571 28.695 324.861 28.637 325.112 28.521L325.141 29.855C324.619 30.145 324.058 30.29 323.459 30.29C321.932 30.29 321.149 29.42 321.11 27.68V27.622C320.704 28.318 320.124 28.9367 319.37 29.478C318.635 30.0193 317.746 30.29 316.702 30.29C315.851 30.29 314.981 30.029 314.092 29.507C313.222 28.985 312.787 28.0377 312.787 26.665C312.787 25.041 313.425 23.9777 314.701 23.475C315.996 22.953 317.369 22.692 318.819 22.692C319.206 22.692 319.592 22.7017 319.979 22.721C320.385 22.7403 320.762 22.7693 321.11 22.808V21.648C321.11 20.72 320.907 19.966 320.501 19.386C320.114 18.806 319.341 18.516 318.181 18.516C317.234 18.516 316.402 18.69 315.687 19.038L315.194 21.271L313.512 21.068L313.976 18.081ZM321.11 25.157V24.171C320.743 24.1517 320.356 24.1227 319.95 24.084C319.544 24.0453 319.128 24.026 318.703 24.026C317.736 24.026 316.857 24.1807 316.064 24.49C315.291 24.78 314.904 25.4277 314.904 26.433C314.904 27.2643 315.165 27.8347 315.687 28.144C316.209 28.4533 316.75 28.608 317.311 28.608C318.2 28.608 319.032 28.2987 319.805 27.68C320.598 27.0613 321.033 26.2203 321.11 25.157ZM340.088 25.65C339.914 26.7713 339.401 27.825 338.551 28.811C337.719 29.797 336.414 30.29 334.636 30.29C332.857 30.29 331.436 29.7197 330.373 28.579C329.309 27.419 328.778 25.8047 328.778 23.736C328.778 21.9573 329.28 20.3623 330.286 18.951C331.291 17.5397 332.799 16.834 334.81 16.834C335.66 16.834 336.443 16.9307 337.159 17.124C337.874 17.3173 338.56 17.6653 339.218 18.168L339.711 21.271L338.029 21.474L337.536 19.299C336.762 18.8157 335.844 18.574 334.781 18.574C333.408 18.574 332.422 19.067 331.823 20.053C331.223 21.039 330.924 22.228 330.924 23.62C330.924 25.1667 331.262 26.375 331.939 27.245C332.615 28.115 333.592 28.55 334.868 28.55C336.801 28.55 337.961 27.4577 338.348 25.273L340.088 25.65ZM357.659 18.748H356.122L351.569 30L349.829 34.524H352.033V36.177H345.479V34.524H347.886L349.568 29.971L344.87 18.748H343.333V17.095H349.307V18.748H347.045L350.67 27.419H350.844L354.063 18.748H351.975V17.095H357.659V18.748Z" fill="white"/>
</g>
<defs>
<clipPath id="clip0_144_3">
<rect width="428" height="127" fill="white"/>
</clipPath>
</defs>
</svg>
