<svg width="477" height="200" viewBox="0 0 477 200" fill="none" xmlns="http://www.w3.org/2000/svg">
<g clip-path="url(#clip0_138_32)">
<path d="M96.4274 138.55C90.7594 142.91 82.8751 145.09 72.7744 145.09C62.4558 145.09 54.0991 141.675 47.7044 134.844C41.3098 127.941 38.1124 119.33 38.1124 109.011C38.1124 102.471 39.4931 96.4033 42.2544 90.808C45.0158 85.14 48.9034 80.5983 53.9174 77.183C58.9314 73.7677 64.8901 72.06 71.7934 72.06C77.6794 72.06 82.5844 72.823 86.5084 74.349C90.5051 75.875 93.9568 77.8733 96.8634 80.344L98.8254 93.969L91.9584 94.623L89.9964 84.268C87.6711 82.742 85.1641 81.543 82.4754 80.671C79.7868 79.7263 76.4441 79.254 72.4474 79.254C64.6721 79.254 58.3864 82.0153 53.5904 87.538C48.8671 93.0607 46.5054 100.109 46.5054 108.684C46.5054 117.477 48.9398 124.562 53.8084 129.939C58.7498 135.244 65.4351 137.896 73.8644 137.896C80.0411 137.896 85.2368 136.842 89.4514 134.735L91.5224 124.271L98.2804 124.925L96.4274 138.55ZM161.553 144H108.797V137.024H117.735V80.126H108.797V73.15H160.572L162.752 93.206L155.776 93.969L153.596 80.126H125.692V104.542H159.155V111.518H125.692V137.024H154.577L156.757 123.181L163.624 123.944L161.553 144ZM244.926 80.126H236.097V144H230.974L189.881 88.192H189.445V137.024H200.672V144H173.64V137.024H181.815V80.126H172.441V73.15H187.701L228.031 127.759H228.467V80.126H217.785V73.15H244.926V80.126ZM302.182 124.162C302.182 130.993 299.748 136.188 294.879 139.749C290.083 143.31 284.088 145.09 276.894 145.09C267.011 145.09 259.418 143.164 254.113 139.313L255.639 125.361L262.179 126.015L261.743 134.953C264.141 136.188 266.539 137.024 268.937 137.46C271.335 137.896 273.842 138.114 276.458 138.114C281.109 138.114 285.105 137.133 288.448 135.171C291.863 133.136 293.571 129.721 293.571 124.925C293.571 119.548 291.718 116.06 288.012 114.461C284.306 112.79 280.273 111.445 275.913 110.428C272.57 109.701 269.264 108.793 265.994 107.703C262.724 106.54 259.999 104.76 257.819 102.362C255.639 99.8913 254.549 96.3307 254.549 91.68C254.549 84.9947 256.765 80.0533 261.198 76.856C265.703 73.6587 271.008 72.06 277.112 72.06C281.036 72.06 284.996 72.605 288.993 73.695C292.99 74.785 296.114 76.202 298.367 77.946L299.021 92.007L292.481 92.661L291.391 82.088C289.138 80.9253 286.849 80.1623 284.524 79.799C282.199 79.363 279.982 79.145 277.875 79.145C273.442 79.145 269.845 80.1623 267.084 82.197C264.395 84.159 263.051 87.0293 263.051 90.808C263.051 95.2407 264.686 98.22 267.956 99.746C271.226 101.272 274.859 102.507 278.856 103.452C282.053 104.179 285.432 105.123 288.993 106.286C292.626 107.376 295.715 109.302 298.258 112.063C300.874 114.752 302.182 118.785 302.182 124.162ZM381.011 80.126H374.144V114.897C374.144 119.911 373.272 124.743 371.528 129.394C369.857 133.972 366.95 137.751 362.808 140.73C358.739 143.637 353.071 145.09 345.804 145.09C335.267 145.09 328.001 142.183 324.004 136.37C320.08 130.484 318.118 123.726 318.118 116.096V80.126H310.815V73.15H335.994V80.126H326.184V115.878C326.184 122.854 327.819 128.268 331.089 132.119C334.359 135.97 339.409 137.896 346.24 137.896C359.829 137.896 366.623 130.23 366.623 114.897V80.126H356.486V73.15H381.011V80.126ZM438.538 124.162C438.538 130.993 436.104 136.188 431.235 139.749C426.439 143.31 420.444 145.09 413.25 145.09C403.368 145.09 395.774 143.164 390.469 139.313L391.995 125.361L398.535 126.015L398.099 134.953C400.497 136.188 402.895 137.024 405.293 137.46C407.691 137.896 410.198 138.114 412.814 138.114C417.465 138.114 421.462 137.133 424.804 135.171C428.22 133.136 429.927 129.721 429.927 124.925C429.927 119.548 428.074 116.06 424.368 114.461C420.662 112.79 416.629 111.445 412.269 110.428C408.927 109.701 405.62 108.793 402.35 107.703C399.08 106.54 396.355 104.76 394.175 102.362C391.995 99.8913 390.905 96.3307 390.905 91.68C390.905 84.9947 393.122 80.0533 397.554 76.856C402.06 73.6587 407.364 72.06 413.468 72.06C417.392 72.06 421.353 72.605 425.349 73.695C429.346 74.785 432.471 76.202 434.723 77.946L435.377 92.007L428.837 92.661L427.747 82.088C425.495 80.9253 423.206 80.1623 420.88 79.799C418.555 79.363 416.339 79.145 414.231 79.145C409.799 79.145 406.202 80.1623 403.44 82.197C400.752 84.159 399.407 87.0293 399.407 90.808C399.407 95.2407 401.042 98.22 404.312 99.746C407.582 101.272 411.216 102.507 415.212 103.452C418.41 104.179 421.789 105.123 425.349 106.286C428.983 107.376 432.071 109.302 434.614 112.063C437.23 114.752 438.538 118.785 438.538 124.162Z" fill="white"/>
<path d="M112.948 47.892L111.063 48.037L110.483 44.006H105.611V59.144H108.946V61H100.246V59.144H103.494V44.006H98.6219L98.0419 48.037L96.1859 47.892L96.7369 42.15H112.368L112.948 47.892ZM131.569 61H125.015V59.347H127.277V53.344C127.277 51.952 126.987 50.9757 126.407 50.415C125.847 49.835 125.122 49.545 124.232 49.545C123.111 49.545 122.193 49.9317 121.477 50.705C120.781 51.459 120.414 52.3097 120.375 53.257V59.347H122.608V61H116.083V59.347H118.316V42.701H116.083V41.048H120.375V50.415C121.323 48.6943 122.831 47.834 124.899 47.834C126.156 47.834 127.21 48.2207 128.06 48.994C128.911 49.7673 129.336 51.0143 129.336 52.735V59.347H131.569V61ZM146.463 57.288C146.289 58.39 145.738 59.3373 144.81 60.13C143.882 60.9033 142.625 61.29 141.04 61.29C139.223 61.29 137.753 60.7197 136.632 59.579C135.511 58.4383 134.95 56.824 134.95 54.736C134.95 52.7253 135.482 51.0723 136.545 49.777C137.608 48.4817 139.049 47.834 140.866 47.834C142.645 47.834 143.998 48.3947 144.926 49.516C145.854 50.6373 146.328 51.9617 146.347 53.489C146.347 53.9917 146.289 54.504 146.173 55.026H137.096C137.212 58.042 138.575 59.55 141.185 59.55C142.21 59.55 143.012 59.3083 143.592 58.825C144.172 58.3417 144.559 57.7037 144.752 56.911L146.463 57.288ZM144.201 53.518C144.298 52.5513 144.066 51.6427 143.505 50.792C142.964 49.9413 142.065 49.516 140.808 49.516C139.609 49.516 138.73 49.9123 138.169 50.705C137.608 51.4977 137.26 52.4353 137.125 53.518H144.201ZM177.385 51.546C177.385 54.3107 176.535 56.5823 174.833 58.361C173.151 60.1203 170.822 61 167.844 61H159.318V59.173H161.696V43.977H159.318V42.15H167.757C170.831 42.15 173.2 43.0393 174.862 44.818C176.544 46.5773 177.385 48.82 177.385 51.546ZM175.123 51.575C175.123 49.2937 174.485 47.457 173.209 46.065C171.953 44.673 170.126 43.977 167.728 43.977H163.813V59.173H167.728C170.126 59.173 171.953 58.4963 173.209 57.143C174.485 55.7703 175.123 53.9143 175.123 51.575ZM183.623 44.76V42.121H185.827V44.76H183.623ZM188.118 61H181.564V59.347H183.826V49.748H181.506V48.095H185.856V59.347H188.118V61ZM206.134 49.748H204.046V60.826C204.046 62.856 203.486 64.4703 202.364 65.669C201.262 66.8677 199.706 67.467 197.695 67.467C196.342 67.467 195.124 67.1577 194.041 66.539C192.978 65.9203 192.272 64.9633 191.924 63.668L193.548 62.856C193.877 63.8613 194.447 64.5863 195.259 65.031C196.071 65.495 196.912 65.727 197.782 65.727C199.02 65.727 200.025 65.292 200.798 64.422C201.591 63.5713 201.987 62.3437 201.987 60.739V58.361C201.601 59.115 201.04 59.7723 200.305 60.333C199.571 60.8937 198.594 61.174 197.376 61.174C195.849 61.174 194.544 60.6327 193.461 59.55C192.379 58.4673 191.837 56.911 191.837 54.881C191.837 53.1603 192.301 51.5557 193.229 50.067C194.157 48.5783 195.617 47.834 197.608 47.834C199.658 47.834 201.117 48.5977 201.987 50.125V48.095H206.134V49.748ZM201.987 55.432V53.199C201.987 52.1163 201.61 51.2463 200.856 50.589C200.122 49.9123 199.223 49.574 198.159 49.574C196.709 49.574 195.656 50.096 194.998 51.14C194.36 52.184 194.041 53.3827 194.041 54.736C194.041 56.3213 194.399 57.5007 195.114 58.274C195.849 59.0473 196.748 59.434 197.811 59.434C199.049 59.434 200.044 59.0087 200.798 58.158C201.552 57.3073 201.949 56.3987 201.987 55.432ZM211.698 44.76V42.121H213.902V44.76H211.698ZM216.193 61H209.639V59.347H211.901V49.748H209.581V48.095H213.931V59.347H216.193V61ZM229.425 57.52C229.077 60.0333 227.714 61.29 225.336 61.29C224.041 61.29 223.045 60.9227 222.349 60.188C221.672 59.4533 221.334 58.4577 221.334 57.201V49.719H219.246V48.095H221.334V43.948H223.364V48.095H228.41V49.719H223.364V56.94C223.364 57.7133 223.528 58.3417 223.857 58.825C224.205 59.289 224.766 59.521 225.539 59.521C226.042 59.521 226.506 59.3663 226.931 59.057C227.376 58.7477 227.695 58.071 227.888 57.027L229.425 57.52ZM233.952 49.081C234.628 48.6363 235.344 48.3173 236.098 48.124C236.852 47.9307 237.654 47.834 238.505 47.834C241.579 47.834 243.116 49.2743 243.116 52.155V58.303C243.116 59.231 243.483 59.695 244.218 59.695C244.546 59.695 244.836 59.637 245.088 59.521L245.117 60.855C244.595 61.145 244.034 61.29 243.435 61.29C241.907 61.29 241.124 60.42 241.086 58.68V58.622C240.68 59.318 240.1 59.9367 239.346 60.478C238.611 61.0193 237.722 61.29 236.678 61.29C235.827 61.29 234.957 61.029 234.068 60.507C233.198 59.985 232.763 59.0377 232.763 57.665C232.763 56.041 233.401 54.9777 234.677 54.475C235.972 53.953 237.345 53.692 238.795 53.692C239.181 53.692 239.568 53.7017 239.955 53.721C240.361 53.7403 240.738 53.7693 241.086 53.808V52.648C241.086 51.72 240.883 50.966 240.477 50.386C240.09 49.806 239.317 49.516 238.157 49.516C237.209 49.516 236.378 49.69 235.663 50.038L235.17 52.271L233.488 52.068L233.952 49.081ZM241.086 56.157V55.171C240.718 55.1517 240.332 55.1227 239.926 55.084C239.52 55.0453 239.104 55.026 238.679 55.026C237.712 55.026 236.832 55.1807 236.04 55.49C235.266 55.78 234.88 56.4277 234.88 57.433C234.88 58.2643 235.141 58.8347 235.663 59.144C236.185 59.4533 236.726 59.608 237.287 59.608C238.176 59.608 239.007 59.2987 239.781 58.68C240.573 58.0613 241.008 57.2203 241.086 56.157ZM254.785 61H248.231V59.347H250.493V42.701H248.202V41.048H252.523V59.347H254.785V61ZM280.804 61H267.203V59.144H269.581V44.006H267.203V42.15H274.859V44.006H271.698V59.144H278.919L279.499 54.823L281.384 54.968L280.804 61ZM286.863 44.76V42.121H289.067V44.76H286.863ZM291.358 61H284.804V59.347H287.066V49.748H284.746V48.095H289.096V59.347H291.358V61ZM304.589 57.52C304.241 60.0333 302.878 61.29 300.5 61.29C299.205 61.29 298.209 60.9227 297.513 60.188C296.837 59.4533 296.498 58.4577 296.498 57.201V49.719H294.41V48.095H296.498V43.948H298.528V48.095H303.574V49.719H298.528V56.94C298.528 57.7133 298.693 58.3417 299.021 58.825C299.369 59.289 299.93 59.521 300.703 59.521C301.206 59.521 301.67 59.3663 302.095 59.057C302.54 58.7477 302.859 58.071 303.052 57.027L304.589 57.52ZM319.382 57.288C319.208 58.39 318.657 59.3373 317.729 60.13C316.801 60.9033 315.544 61.29 313.959 61.29C312.142 61.29 310.672 60.7197 309.551 59.579C308.43 58.4383 307.869 56.824 307.869 54.736C307.869 52.7253 308.401 51.0723 309.464 49.777C310.527 48.4817 311.968 47.834 313.785 47.834C315.564 47.834 316.917 48.3947 317.845 49.516C318.773 50.6373 319.247 51.9617 319.266 53.489C319.266 53.9917 319.208 54.504 319.092 55.026H310.015C310.131 58.042 311.494 59.55 314.104 59.55C315.129 59.55 315.931 59.3083 316.511 58.825C317.091 58.3417 317.478 57.7037 317.671 56.911L319.382 57.288ZM317.12 53.518C317.217 52.5513 316.985 51.6427 316.424 50.792C315.883 49.9413 314.984 49.516 313.727 49.516C312.528 49.516 311.649 49.9123 311.088 50.705C310.527 51.4977 310.179 52.4353 310.044 53.518H317.12ZM330.655 47.863C331.583 47.863 332.318 48.0853 332.859 48.53L333.352 51.778L331.699 51.981L331.206 49.777C330.878 49.661 330.549 49.603 330.22 49.603C329.466 49.603 328.838 49.922 328.335 50.56C327.833 51.1787 327.581 51.9907 327.581 52.996V59.347H330.568V61H323.289V59.347H325.551V49.748H323.231V48.095H327.465V50.415C327.717 49.6997 328.123 49.1003 328.683 48.617C329.263 48.1143 329.921 47.863 330.655 47.863ZM338.976 49.081C339.653 48.6363 340.368 48.3173 341.122 48.124C341.876 47.9307 342.678 47.834 343.529 47.834C346.603 47.834 348.14 49.2743 348.14 52.155V58.303C348.14 59.231 348.507 59.695 349.242 59.695C349.571 59.695 349.861 59.637 350.112 59.521L350.141 60.855C349.619 61.145 349.058 61.29 348.459 61.29C346.932 61.29 346.149 60.42 346.11 58.68V58.622C345.704 59.318 345.124 59.9367 344.37 60.478C343.635 61.0193 342.746 61.29 341.702 61.29C340.851 61.29 339.981 61.029 339.092 60.507C338.222 59.985 337.787 59.0377 337.787 57.665C337.787 56.041 338.425 54.9777 339.701 54.475C340.996 53.953 342.369 53.692 343.819 53.692C344.206 53.692 344.592 53.7017 344.979 53.721C345.385 53.7403 345.762 53.7693 346.11 53.808V52.648C346.11 51.72 345.907 50.966 345.501 50.386C345.114 49.806 344.341 49.516 343.181 49.516C342.234 49.516 341.402 49.69 340.687 50.038L340.194 52.271L338.512 52.068L338.976 49.081ZM346.11 56.157V55.171C345.743 55.1517 345.356 55.1227 344.95 55.084C344.544 55.0453 344.128 55.026 343.703 55.026C342.736 55.026 341.857 55.1807 341.064 55.49C340.291 55.78 339.904 56.4277 339.904 57.433C339.904 58.2643 340.165 58.8347 340.687 59.144C341.209 59.4533 341.75 59.608 342.311 59.608C343.2 59.608 344.032 59.2987 344.805 58.68C345.598 58.0613 346.033 57.2203 346.11 56.157ZM365.088 56.65C364.914 57.7713 364.401 58.825 363.551 59.811C362.719 60.797 361.414 61.29 359.636 61.29C357.857 61.29 356.436 60.7197 355.373 59.579C354.309 58.419 353.778 56.8047 353.778 54.736C353.778 52.9573 354.28 51.3623 355.286 49.951C356.291 48.5397 357.799 47.834 359.81 47.834C360.66 47.834 361.443 47.9307 362.159 48.124C362.874 48.3173 363.56 48.6653 364.218 49.168L364.711 52.271L363.029 52.474L362.536 50.299C361.762 49.8157 360.844 49.574 359.781 49.574C358.408 49.574 357.422 50.067 356.823 51.053C356.223 52.039 355.924 53.228 355.924 54.62C355.924 56.1667 356.262 57.375 356.939 58.245C357.615 59.115 358.592 59.55 359.868 59.55C361.801 59.55 362.961 58.4577 363.348 56.273L365.088 56.65ZM382.659 49.748H381.122L376.569 61L374.829 65.524H377.033V67.177H370.479V65.524H372.886L374.568 60.971L369.87 49.748H368.333V48.095H374.307V49.748H372.045L375.67 58.419H375.844L379.063 49.748H376.975V48.095H382.659V49.748Z" fill="white"/>
</g>
<defs>
<clipPath id="clip0_138_32">
<rect width="477" height="200" fill="white"/>
</clipPath>
</defs>
</svg>
