<svg width="477" height="119" viewBox="0 0 477 119" fill="none" xmlns="http://www.w3.org/2000/svg">
<g clip-path="url(#clip0_140_36)">
<path d="M85.8532 58.466C85.8532 68.8573 82.6558 77.3957 76.2612 84.081C69.9392 90.6937 61.1828 94 49.9922 94H17.9462V87.133H26.8842V30.017H17.9462V23.15H49.6652C61.2192 23.15 70.1208 26.4927 76.3702 33.178C82.6922 39.7907 85.8532 48.22 85.8532 58.466ZM77.3512 58.575C77.3512 50.0003 74.9532 43.097 70.1572 37.865C65.4338 32.633 58.5668 30.017 49.5562 30.017H34.8412V87.133H49.5562C58.5668 87.133 65.4338 84.5897 70.1572 79.503C74.9532 74.3437 77.3512 67.3677 77.3512 58.575ZM265.63 30.126H256.801V94H251.678L210.585 38.192H210.149V87.024H221.376V94H194.344V87.024H202.519V30.126H193.145V23.15H208.405L248.735 77.759H249.171V30.126H238.489V23.15H265.63V30.126ZM338.742 94H313.563V87.024H323.046L317.923 73.399H287.621L282.171 87.024H292.417V94H267.456V87.024H274.105L297.322 30.126H285.986V23.15H306.151L331.548 87.024H338.742V94ZM315.634 67.186L303.426 34.704H302.772L290.019 67.186H315.634ZM397.25 44.732L390.165 45.277L387.985 30.126H369.673V87.024H382.208V94H349.508V87.024H361.716V30.126H343.404L341.224 45.277L334.248 44.732L336.319 23.15H395.07L397.25 44.732ZM456.886 94H404.13V87.024H413.068V30.126H404.13V23.15H455.905L458.085 43.206L451.109 43.969L448.929 30.126H421.025V54.542H454.488V61.518H421.025V87.024H449.91L452.09 73.181L458.957 73.944L456.886 94Z" fill="white"/>
<path d="M176.229 29.6321C174.164 27.5669 171.713 25.9285 169.016 24.8108C166.318 23.693 163.427 23.1177 160.507 23.1177C157.587 23.1177 154.695 23.693 151.998 24.8108C149.3 25.9285 146.849 27.5669 144.785 29.6321L140.5 33.9163L136.216 29.6321C132.046 25.4624 126.391 23.1198 120.494 23.1198C114.597 23.1198 108.942 25.4624 104.772 29.6321C100.602 33.8019 98.2598 39.4573 98.2598 45.3542C98.2598 51.2511 100.602 56.9065 104.772 61.0763L140.5 96.8046L176.229 61.0763C178.294 59.012 179.932 56.561 181.05 53.8634C182.168 51.1657 182.743 48.2743 182.743 45.3542C182.743 42.4342 182.168 39.5427 181.05 36.8451C179.932 34.1474 178.294 31.6964 176.229 29.6321Z" stroke="white" stroke-width="7" stroke-linecap="round" stroke-linejoin="round"/>
</g>
<defs>
<clipPath id="clip0_140_36">
<rect width="477" height="119" fill="white"/>
</clipPath>
</defs>
</svg>
