<svg width="2143" height="773" viewBox="0 0 2143 773" fill="none" xmlns="http://www.w3.org/2000/svg">
<path d="M45 544.399V303.694C45 272.664 53.8728 248.283 71.6185 230.552C89.3642 212.82 113.986 203.955 145.485 203.955H244.639V287.736H170.773C164.562 287.736 159.238 289.952 154.801 294.385C150.365 298.375 148.147 303.694 148.147 310.343V544.399H45Z" fill="#004225"/>
<path d="M469.056 544.399C430.459 544.399 396.52 537.306 367.24 523.121C337.96 508.493 315.112 488.545 298.697 463.277C282.726 437.567 274.741 407.866 274.741 374.177C274.741 336.941 282.504 305.024 298.032 278.427C313.559 251.83 334.189 231.438 359.92 217.253C386.095 202.625 414.932 195.311 446.43 195.311C482.365 195.311 512.311 202.846 536.268 217.918C560.668 232.99 579.079 253.603 591.501 279.757C603.923 305.467 610.134 334.946 610.134 368.192C610.134 373.955 609.69 380.826 608.803 388.805C608.359 396.341 607.694 402.325 606.807 406.758H383.211C385.873 418.284 390.975 428.036 398.517 436.015C406.059 443.994 415.597 449.979 427.132 453.968C438.666 457.515 451.532 459.288 465.729 459.288H570.206V544.399H469.056ZM380.549 342.26H510.315C509.427 335.167 508.096 328.297 506.322 321.647C504.547 314.998 501.664 309.235 497.671 304.359C494.122 299.04 489.907 294.607 485.027 291.06C480.147 287.071 474.38 283.968 467.725 281.751C461.514 279.535 454.416 278.427 446.43 278.427C436.226 278.427 427.132 280.2 419.146 283.746C411.161 287.293 404.506 292.169 399.182 298.375C393.859 304.137 389.644 311.008 386.538 318.988C383.877 326.523 381.88 334.281 380.549 342.26Z" fill="#004225"/>
<path d="M696.187 544.399V287.736H638.957V203.29H696.187V158.739C696.187 127.709 705.06 103.329 722.805 85.5972C740.551 67.8657 764.951 59 796.006 59H899.818V143.446H818.632C813.308 143.446 808.65 145.441 804.657 149.43C801.108 152.977 799.333 157.41 799.333 162.729V203.29H885.178V287.736H799.333V544.399H696.187Z" fill="#004225"/>
<path d="M927.518 544.399V303.694C927.518 272.664 936.391 248.283 954.137 230.552C971.882 212.82 996.505 203.955 1028 203.955H1127.16V287.736H1053.29C1047.08 287.736 1041.76 289.952 1037.32 294.385C1032.88 298.375 1030.66 303.694 1030.66 310.343V544.399H927.518Z" fill="#004225"/>
<path d="M1310.32 552.378C1280.15 552.378 1253.53 544.62 1230.46 529.105C1207.39 513.59 1189.42 492.756 1176.56 466.602C1163.69 440.005 1157.26 410.083 1157.26 376.836C1157.26 342.26 1164.8 311.452 1179.88 284.411C1194.97 256.927 1216.26 235.206 1243.77 219.248C1271.72 203.29 1304.55 195.311 1342.26 195.311C1380.41 195.311 1412.8 203.29 1439.42 219.248C1466.48 234.763 1487.11 256.262 1501.3 283.746C1515.94 310.787 1523.26 341.152 1523.26 374.842V544.399H1422.11V489.874H1419.45C1413.24 501.843 1405.25 512.704 1395.49 522.456C1385.73 531.765 1373.76 539.079 1359.56 544.399C1345.81 549.718 1329.39 552.378 1310.32 552.378ZM1340.93 463.277C1356.45 463.277 1369.99 459.509 1381.52 451.973C1393.5 443.994 1402.59 433.134 1408.8 419.392C1415.01 405.65 1418.12 390.357 1418.12 373.512C1418.12 357.11 1415.01 342.26 1408.8 328.961C1402.59 315.663 1393.5 305.246 1381.52 297.71C1369.99 289.731 1356.45 285.741 1340.93 285.741C1324.96 285.741 1310.98 289.731 1299 297.71C1287.02 305.246 1277.93 315.663 1271.72 328.961C1265.51 342.26 1262.4 357.11 1262.4 373.512C1262.4 390.357 1265.51 405.65 1271.72 419.392C1277.93 433.134 1287.02 443.994 1299 451.973C1310.98 459.509 1324.96 463.277 1340.93 463.277Z" fill="#004225"/>
<path d="M1767.24 544.399C1731.75 544.399 1700.25 537.085 1672.74 522.456C1645.24 507.384 1623.5 487.215 1607.53 461.947C1591.56 436.237 1583.57 406.98 1583.57 374.177C1583.57 341.374 1591.56 312.338 1607.53 287.071C1623.5 261.36 1645.24 240.969 1672.74 225.897C1700.25 210.826 1731.75 203.29 1767.24 203.29H1818.48V290.396H1771.23C1753.93 290.396 1739.07 294.163 1726.65 301.699C1714.22 308.792 1704.46 318.766 1697.37 331.621C1690.71 344.033 1687.38 358.218 1687.38 374.177C1687.38 390.135 1690.71 404.542 1697.37 417.397C1704.46 429.809 1714.22 439.783 1726.65 447.319C1739.07 454.412 1753.93 457.958 1771.23 457.958H1818.48V544.399H1767.24Z" fill="#004225"/>
<path d="M2000.84 544.399C1969.34 544.399 1944.72 535.533 1926.98 517.802C1909.23 499.627 1900.36 475.246 1900.36 444.659V120.174H2004.17V438.675C2004.17 443.994 2005.94 448.649 2009.49 452.638C2013.49 456.185 2018.14 457.958 2023.47 457.958H2098V544.399H2000.84ZM1844.46 287.736V203.29H2098V287.736H1844.46Z" fill="#004225"/>
<path d="M198.244 710.631V629.302H180.662V609.957H198.244V595.152C198.244 586.203 200.747 579.228 205.752 574.227C210.888 569.095 217.935 566.528 226.891 566.528H253.759V585.874H231.039C228.01 585.874 225.573 586.795 223.73 588.637C221.886 590.48 220.964 592.98 220.964 596.139V609.957H249.61V629.302H220.964V710.631H198.244Z" fill="#F94D00"/>
<path d="M392.313 713C381.908 713 372.688 710.697 364.654 706.091C356.62 701.353 350.232 695.036 345.491 687.14C340.881 679.113 338.576 670.164 338.576 660.294C338.576 650.424 340.881 641.541 345.491 633.645C350.232 625.617 356.62 619.3 364.654 614.694C372.688 609.957 381.908 607.588 392.313 607.588C402.586 607.588 411.739 609.957 419.773 614.694C427.807 619.3 434.129 625.551 438.739 633.447C443.48 641.343 445.851 650.292 445.851 660.294C445.851 670.164 443.48 679.113 438.739 687.14C434.129 695.036 427.807 701.353 419.773 706.091C411.739 710.697 402.586 713 392.313 713ZM392.313 693.655C398.503 693.655 403.903 692.207 408.512 689.312C413.122 686.285 416.678 682.271 419.181 677.27C421.683 672.27 422.934 666.611 422.934 660.294C422.934 654.109 421.683 648.516 419.181 643.515C416.678 638.382 413.122 634.369 408.512 631.473C403.903 628.447 398.503 626.933 392.313 626.933C385.991 626.933 380.525 628.447 375.915 631.473C371.437 634.369 367.881 638.317 365.247 643.317C362.744 648.318 361.493 653.977 361.493 660.294C361.493 666.479 362.744 672.138 365.247 677.27C367.881 682.271 371.437 686.285 375.915 689.312C380.525 692.207 385.991 693.655 392.313 693.655Z" fill="#F94D00"/>
<path d="M596.598 713C586.852 713 578.357 711.092 571.113 707.275C563.869 703.327 558.272 697.932 554.32 691.088C550.369 684.245 548.394 676.547 548.394 667.993V609.957H571.113V667.795C571.113 672.928 572.232 677.468 574.471 681.416C576.842 685.232 579.937 688.259 583.757 690.496C587.708 692.602 591.988 693.655 596.598 693.655C601.208 693.655 605.422 692.602 609.242 690.496C613.193 688.259 616.288 685.232 618.527 681.416C620.898 677.468 622.083 672.928 622.083 667.795V609.957H644.803V667.993C644.803 676.547 642.827 684.245 638.876 691.088C634.925 697.932 629.327 703.327 622.083 707.275C614.839 711.092 606.344 713 596.598 713Z" fill="#F94D00"/>
<path d="M753.061 710.631V652.595C753.061 643.91 755.036 636.211 758.987 629.499C762.938 622.656 768.536 617.326 775.78 613.51C783.024 609.562 791.519 607.588 801.265 607.588C811.011 607.588 819.44 609.562 826.553 613.51C833.796 617.326 839.394 622.656 843.345 629.499C847.296 636.211 849.272 643.91 849.272 652.595V710.631H826.75V652.793C826.75 647.66 825.565 643.186 823.194 639.369C820.823 635.421 817.662 632.395 813.711 630.289C809.892 628.052 805.677 626.933 801.067 626.933C796.589 626.933 792.375 628.052 788.424 630.289C784.604 632.395 781.509 635.421 779.138 639.369C776.899 643.186 775.78 647.66 775.78 652.793V710.631H753.061Z" fill="#F94D00"/>
<path d="M1004.36 713C996.322 713 989.012 711.75 982.427 709.249C975.973 706.617 970.442 702.867 965.832 697.998C961.354 693.128 957.864 687.404 955.361 680.824C952.991 674.112 951.805 666.742 951.805 658.715C951.805 648.45 953.847 639.501 957.929 631.868C962.144 624.235 967.939 618.313 975.315 614.102C982.69 609.759 991.119 607.588 1000.6 607.588C1005.34 607.588 1009.82 608.312 1014.04 609.759C1018.25 611.207 1022.07 613.247 1025.49 615.879C1028.92 618.511 1031.69 621.603 1033.79 625.157H1033.99V566.528H1056.71V659.11C1056.71 670.164 1054.47 679.771 1049.99 687.93C1045.65 695.958 1039.52 702.143 1031.62 706.486C1023.85 710.829 1014.76 713 1004.36 713ZM1004.36 693.655C1010.15 693.655 1015.22 692.273 1019.57 689.509C1024.05 686.614 1027.54 682.666 1030.04 677.665C1032.54 672.664 1033.79 666.874 1033.79 660.294C1033.79 653.714 1032.54 647.923 1030.04 642.923C1027.54 637.922 1024.05 634.04 1019.57 631.276C1015.22 628.381 1010.09 626.933 1004.16 626.933C998.495 626.933 993.424 628.381 988.946 631.276C984.468 634.171 980.978 638.119 978.476 643.12C975.973 648.121 974.722 653.845 974.722 660.294C974.722 666.874 975.973 672.664 978.476 677.665C980.978 682.666 984.468 686.614 988.946 689.509C993.556 692.273 998.693 693.655 1004.36 693.655Z" fill="#F94D00"/>
<path d="M1205.03 713C1195.41 713 1187.11 710.631 1180.13 705.894C1173.15 701.156 1167.75 694.839 1163.93 686.943C1160.25 678.915 1158.4 670.098 1158.4 660.491C1158.4 650.49 1160.51 641.541 1164.72 633.645C1169.07 625.617 1175.19 619.3 1183.1 614.694C1191.13 609.957 1200.68 607.588 1211.74 607.588C1222.67 607.588 1231.96 609.957 1239.6 614.694C1247.37 619.3 1253.3 625.617 1257.38 633.645C1261.59 641.541 1263.7 650.358 1263.7 660.097V710.631H1240.98V691.878H1240.59C1238.61 695.563 1236.04 699.05 1232.88 702.34C1229.72 705.499 1225.83 708.065 1221.23 710.039C1216.62 712.013 1211.22 713 1205.03 713ZM1211.15 693.655C1217.08 693.655 1222.21 692.207 1226.56 689.312C1231.04 686.285 1234.46 682.271 1236.83 677.27C1239.33 672.138 1240.59 666.413 1240.59 660.097C1240.59 653.78 1239.4 648.187 1237.03 643.317C1234.66 638.317 1231.3 634.369 1226.95 631.473C1222.61 628.447 1217.41 626.933 1211.35 626.933C1205.03 626.933 1199.63 628.447 1195.15 631.473C1190.67 634.369 1187.24 638.317 1184.87 643.317C1182.5 648.318 1181.32 653.977 1181.32 660.294C1181.32 666.479 1182.5 672.138 1184.87 677.27C1187.24 682.271 1190.6 686.285 1194.95 689.312C1199.43 692.207 1204.83 693.655 1211.15 693.655Z" fill="#F94D00"/>
<path d="M1406.65 710.631C1397.7 710.631 1390.65 708.065 1385.52 702.933C1380.51 697.8 1378.01 690.825 1378.01 682.008V584.689H1400.53V681.021C1400.53 684.048 1401.45 686.548 1403.3 688.522C1405.14 690.365 1407.58 691.286 1410.61 691.286H1431.74V710.631H1406.65ZM1360.62 629.302V609.957H1431.94V629.302H1360.62Z" fill="#F94D00"/>
<path d="M1534.3 710.631V609.957H1557.02V710.631H1534.3ZM1545.56 595.941C1541.61 595.941 1538.18 594.494 1535.29 591.598C1532.39 588.703 1530.94 585.282 1530.94 581.334C1530.94 577.385 1532.39 573.964 1535.29 571.069C1538.18 568.173 1541.61 566.726 1545.56 566.726C1549.64 566.726 1553.07 568.173 1555.83 571.069C1558.73 573.964 1560.18 577.385 1560.18 581.334C1560.18 585.282 1558.73 588.703 1555.83 591.598C1553.07 594.494 1549.64 595.941 1545.56 595.941Z" fill="#F94D00"/>
<path d="M1713.27 713C1702.87 713 1693.65 710.697 1685.62 706.091C1677.58 701.353 1671.19 695.036 1666.45 687.14C1661.84 679.113 1659.54 670.164 1659.54 660.294C1659.54 650.424 1661.84 641.541 1666.45 633.645C1671.19 625.617 1677.58 619.3 1685.62 614.694C1693.65 609.957 1702.87 607.588 1713.27 607.588C1723.55 607.588 1732.7 609.957 1740.74 614.694C1748.77 619.3 1755.09 625.551 1759.7 633.447C1764.44 641.343 1766.81 650.292 1766.81 660.294C1766.81 670.164 1764.44 679.113 1759.7 687.14C1755.09 695.036 1748.77 701.353 1740.74 706.091C1732.7 710.697 1723.55 713 1713.27 713ZM1713.27 693.655C1719.46 693.655 1724.86 692.207 1729.47 689.312C1734.08 686.285 1737.64 682.271 1740.14 677.27C1742.64 672.27 1743.9 666.611 1743.9 660.294C1743.9 654.109 1742.64 648.516 1740.14 643.515C1737.64 638.382 1734.08 634.369 1729.47 631.473C1724.86 628.447 1719.46 626.933 1713.27 626.933C1706.95 626.933 1701.49 628.447 1696.88 631.473C1692.4 634.369 1688.84 638.317 1686.21 643.317C1683.71 648.318 1682.46 653.977 1682.46 660.294C1682.46 666.479 1683.71 672.138 1686.21 677.27C1688.84 682.271 1692.4 686.285 1696.88 689.312C1701.49 692.207 1706.95 693.655 1713.27 693.655Z" fill="#F94D00"/>
<path d="M1869.36 710.631V652.595C1869.36 643.91 1871.33 636.211 1875.28 629.499C1879.23 622.656 1884.83 617.326 1892.07 613.51C1899.32 609.562 1907.81 607.588 1917.56 607.588C1927.31 607.588 1935.74 609.562 1942.85 613.51C1950.09 617.326 1955.69 622.656 1959.64 629.499C1963.59 636.211 1965.57 643.91 1965.57 652.595V710.631H1943.05V652.793C1943.05 647.66 1941.86 643.186 1939.49 639.369C1937.12 635.421 1933.96 632.395 1930.01 630.289C1926.19 628.052 1921.97 626.933 1917.36 626.933C1912.88 626.933 1908.67 628.052 1904.72 630.289C1900.9 632.395 1897.8 635.421 1895.43 639.369C1893.19 643.186 1892.07 647.66 1892.07 652.793V710.631H1869.36Z" fill="#F94D00"/>
</svg>
