<svg width="477" height="200" viewBox="0 0 477 200" fill="none" xmlns="http://www.w3.org/2000/svg">
<path d="M42.162 129V82.664C42.162 76.6907 43.8687 71.9973 47.282 68.584C50.6953 65.1707 55.4313 63.464 61.49 63.464H80.562V79.592H66.354C65.1593 79.592 64.1353 80.0187 63.282 80.872C62.4287 81.64 62.002 82.664 62.002 83.944V129H42.162ZM123.728 129C116.304 129 109.776 127.635 104.144 124.904C98.512 122.088 94.1173 118.248 90.96 113.384C87.888 108.435 86.352 102.717 86.352 96.232C86.352 89.064 87.8453 82.92 90.832 77.8C93.8187 72.68 97.7867 68.7547 102.736 66.024C107.771 63.208 113.317 61.8 119.376 61.8C126.288 61.8 132.048 63.2507 136.656 66.152C141.349 69.0533 144.891 73.0213 147.28 78.056C149.669 83.0053 150.864 88.68 150.864 95.08C150.864 96.1893 150.779 97.512 150.608 99.048C150.523 100.499 150.395 101.651 150.224 102.504H107.216C107.728 104.723 108.709 106.6 110.16 108.136C111.611 109.672 113.445 110.824 115.664 111.592C117.883 112.275 120.357 112.616 123.088 112.616H143.184V129H123.728ZM106.704 90.088H131.664C131.493 88.7227 131.237 87.4 130.896 86.12C130.555 84.84 130 83.7307 129.232 82.792C128.549 81.768 127.739 80.9147 126.8 80.232C125.861 79.464 124.752 78.8667 123.472 78.44C122.277 78.0133 120.912 77.8 119.376 77.8C117.413 77.8 115.664 78.1413 114.128 78.824C112.592 79.5067 111.312 80.4453 110.288 81.64C109.264 82.7493 108.453 84.072 107.856 85.608C107.344 87.0587 106.96 88.552 106.704 90.088ZM167.416 129V79.592H156.408V63.336H167.416V54.76C167.416 48.7867 169.123 44.0933 172.536 40.68C175.949 37.2667 180.643 35.56 186.616 35.56H206.584V51.816H190.968C189.944 51.816 189.048 52.2 188.28 52.968C187.597 53.6507 187.256 54.504 187.256 55.528V63.336H203.768V79.592H187.256V129H167.416ZM211.912 129V82.664C211.912 76.6907 213.619 71.9973 217.032 68.584C220.445 65.1707 225.181 63.464 231.24 63.464H250.312V79.592H236.104C234.909 79.592 233.885 80.0187 233.032 80.872C232.179 81.64 231.752 82.664 231.752 83.944V129H211.912ZM285.542 130.536C279.739 130.536 274.619 129.043 270.182 126.056C265.745 123.069 262.289 119.059 259.814 114.024C257.339 108.904 256.102 103.144 256.102 96.744C256.102 90.088 257.553 84.1573 260.454 78.952C263.355 73.6613 267.451 69.48 272.742 66.408C278.118 63.336 284.433 61.8 291.686 61.8C299.025 61.8 305.254 63.336 310.374 66.408C315.579 69.3947 319.547 73.5333 322.278 78.824C325.094 84.0293 326.502 89.8747 326.502 96.36V129H307.046V118.504H306.534C305.339 120.808 303.803 122.899 301.926 124.776C300.049 126.568 297.745 127.976 295.014 129C292.369 130.024 289.211 130.536 285.542 130.536ZM291.43 113.384C294.417 113.384 297.019 112.659 299.238 111.208C301.542 109.672 303.291 107.581 304.486 104.936C305.681 102.291 306.278 99.3467 306.278 96.104C306.278 92.9467 305.681 90.088 304.486 87.528C303.291 84.968 301.542 82.9627 299.238 81.512C297.019 79.976 294.417 79.208 291.43 79.208C288.358 79.208 285.67 79.976 283.366 81.512C281.062 82.9627 279.313 84.968 278.118 87.528C276.923 90.088 276.326 92.9467 276.326 96.104C276.326 99.3467 276.923 102.291 278.118 104.936C279.313 107.581 281.062 109.672 283.366 111.208C285.67 112.659 288.358 113.384 291.43 113.384ZM373.43 129C366.603 129 360.545 127.592 355.254 124.776C349.963 121.875 345.782 117.992 342.71 113.128C339.638 108.179 338.102 102.547 338.102 96.232C338.102 89.9173 339.638 84.328 342.71 79.464C345.782 74.5147 349.963 70.5893 355.254 67.688C360.545 64.7867 366.603 63.336 373.43 63.336H383.286V80.104H374.198C370.87 80.104 368.011 80.8293 365.622 82.28C363.233 83.6453 361.355 85.5653 359.99 88.04C358.71 90.4293 358.07 93.16 358.07 96.232C358.07 99.304 358.71 102.077 359.99 104.552C361.355 106.941 363.233 108.861 365.622 110.312C368.011 111.677 370.87 112.36 374.198 112.36H383.286V129H373.43ZM418.363 129C412.304 129 407.568 127.293 404.155 123.88C400.742 120.381 399.035 115.688 399.035 109.8V47.336H419.003V108.648C419.003 109.672 419.344 110.568 420.027 111.336C420.795 112.019 421.691 112.36 422.715 112.36H437.051V129H418.363ZM388.283 79.592V63.336H437.051V79.592H388.283Z" fill="white"/>
<path d="M71.6382 161V145.344H68.2562V141.62H71.6382V138.77C71.6382 137.047 72.1195 135.705 73.0822 134.742C74.0702 133.754 75.4255 133.26 77.1482 133.26H82.3162V136.984H77.9462C77.3635 136.984 76.8948 137.161 76.5402 137.516C76.1855 137.871 76.0082 138.352 76.0082 138.96V141.62H81.5182V145.344H76.0082V161H71.6382ZM108.967 161.456C106.965 161.456 105.192 161.013 103.647 160.126C102.101 159.214 100.873 157.998 99.9606 156.478C99.074 154.933 98.6306 153.21 98.6306 151.31C98.6306 149.41 99.074 147.7 99.9606 146.18C100.873 144.635 102.101 143.419 103.647 142.532C105.192 141.62 106.965 141.164 108.967 141.164C110.943 141.164 112.703 141.62 114.249 142.532C115.794 143.419 117.01 144.622 117.897 146.142C118.809 147.662 119.265 149.385 119.265 151.31C119.265 153.21 118.809 154.933 117.897 156.478C117.01 157.998 115.794 159.214 114.249 160.126C112.703 161.013 110.943 161.456 108.967 161.456ZM108.967 157.732C110.157 157.732 111.196 157.453 112.083 156.896C112.969 156.313 113.653 155.541 114.135 154.578C114.616 153.615 114.857 152.526 114.857 151.31C114.857 150.119 114.616 149.043 114.135 148.08C113.653 147.092 112.969 146.319 112.083 145.762C111.196 145.179 110.157 144.888 108.967 144.888C107.751 144.888 106.699 145.179 105.813 145.762C104.951 146.319 104.267 147.079 103.761 148.042C103.279 149.005 103.039 150.094 103.039 151.31C103.039 152.501 103.279 153.59 103.761 154.578C104.267 155.541 104.951 156.313 105.813 156.896C106.699 157.453 107.751 157.732 108.967 157.732ZM148.26 161.456C146.386 161.456 144.752 161.089 143.358 160.354C141.965 159.594 140.888 158.555 140.128 157.238C139.368 155.921 138.988 154.439 138.988 152.792V141.62H143.358V152.754C143.358 153.742 143.574 154.616 144.004 155.376C144.46 156.111 145.056 156.693 145.79 157.124C146.55 157.529 147.374 157.732 148.26 157.732C149.147 157.732 149.958 157.529 150.692 157.124C151.452 156.693 152.048 156.111 152.478 155.376C152.934 154.616 153.162 153.742 153.162 152.754V141.62H157.532V152.792C157.532 154.439 157.152 155.921 156.392 157.238C155.632 158.555 154.556 159.594 153.162 160.354C151.769 161.089 150.135 161.456 148.26 161.456ZM178.356 161V149.828C178.356 148.156 178.736 146.674 179.496 145.382C180.256 144.065 181.332 143.039 182.726 142.304C184.119 141.544 185.753 141.164 187.628 141.164C189.502 141.164 191.124 141.544 192.492 142.304C193.885 143.039 194.962 144.065 195.722 145.382C196.482 146.674 196.862 148.156 196.862 149.828V161H192.53V149.866C192.53 148.878 192.302 148.017 191.846 147.282C191.39 146.522 190.782 145.939 190.022 145.534C189.287 145.103 188.476 144.888 187.59 144.888C186.728 144.888 185.918 145.103 185.158 145.534C184.423 145.939 183.828 146.522 183.372 147.282C182.941 148.017 182.726 148.878 182.726 149.866V161H178.356ZM226.692 161.456C225.146 161.456 223.74 161.215 222.474 160.734C221.232 160.227 220.168 159.505 219.282 158.568C218.42 157.631 217.749 156.529 217.268 155.262C216.812 153.97 216.584 152.551 216.584 151.006C216.584 149.03 216.976 147.307 217.762 145.838C218.572 144.369 219.687 143.229 221.106 142.418C222.524 141.582 224.146 141.164 225.97 141.164C226.882 141.164 227.743 141.303 228.554 141.582C229.364 141.861 230.099 142.253 230.758 142.76C231.416 143.267 231.948 143.862 232.354 144.546H232.392V133.26H236.762V151.082C236.762 153.21 236.331 155.059 235.47 156.63C234.634 158.175 233.456 159.366 231.936 160.202C230.441 161.038 228.693 161.456 226.692 161.456ZM226.692 157.732C227.806 157.732 228.782 157.466 229.618 156.934C230.479 156.377 231.15 155.617 231.632 154.654C232.113 153.691 232.354 152.577 232.354 151.31C232.354 150.043 232.113 148.929 231.632 147.966C231.15 147.003 230.479 146.256 229.618 145.724C228.782 145.167 227.794 144.888 226.654 144.888C225.564 144.888 224.589 145.167 223.728 145.724C222.866 146.281 222.195 147.041 221.714 148.004C221.232 148.967 220.992 150.069 220.992 151.31C220.992 152.577 221.232 153.691 221.714 154.654C222.195 155.617 222.866 156.377 223.728 156.934C224.614 157.466 225.602 157.732 226.692 157.732ZM265.29 161.456C263.44 161.456 261.844 161 260.502 160.088C259.159 159.176 258.12 157.96 257.386 156.44C256.676 154.895 256.322 153.197 256.322 151.348C256.322 149.423 256.727 147.7 257.538 146.18C258.374 144.635 259.552 143.419 261.072 142.532C262.617 141.62 264.454 141.164 266.582 141.164C268.684 141.164 270.47 141.62 271.94 142.532C273.434 143.419 274.574 144.635 275.36 146.18C276.17 147.7 276.576 149.397 276.576 151.272V161H272.206V157.39H272.13C271.75 158.099 271.256 158.771 270.648 159.404C270.04 160.012 269.292 160.506 268.406 160.886C267.519 161.266 266.48 161.456 265.29 161.456ZM266.468 157.732C267.608 157.732 268.596 157.453 269.432 156.896C270.293 156.313 270.952 155.541 271.408 154.578C271.889 153.59 272.13 152.488 272.13 151.272C272.13 150.056 271.902 148.979 271.446 148.042C270.99 147.079 270.344 146.319 269.508 145.762C268.672 145.179 267.671 144.888 266.506 144.888C265.29 144.888 264.251 145.179 263.39 145.762C262.528 146.319 261.87 147.079 261.414 148.042C260.958 149.005 260.73 150.094 260.73 151.31C260.73 152.501 260.958 153.59 261.414 154.578C261.87 155.541 262.516 156.313 263.352 156.896C264.213 157.453 265.252 157.732 266.468 157.732ZM304.073 161C302.35 161 300.995 160.506 300.007 159.518C299.044 158.53 298.563 157.187 298.563 155.49V136.756H302.895V155.3C302.895 155.883 303.072 156.364 303.427 156.744C303.781 157.099 304.25 157.276 304.833 157.276H308.899V161H304.073ZM295.219 145.344V141.62H308.937V145.344H295.219ZM328.625 161V141.62H332.995V161H328.625ZM330.791 138.922C330.031 138.922 329.372 138.643 328.815 138.086C328.257 137.529 327.979 136.87 327.979 136.11C327.979 135.35 328.257 134.691 328.815 134.134C329.372 133.577 330.031 133.298 330.791 133.298C331.576 133.298 332.235 133.577 332.767 134.134C333.324 134.691 333.603 135.35 333.603 136.11C333.603 136.87 333.324 137.529 332.767 138.086C332.235 138.643 331.576 138.922 330.791 138.922ZM363.05 161.456C361.049 161.456 359.275 161.013 357.73 160.126C356.185 159.214 354.956 157.998 354.044 156.478C353.157 154.933 352.714 153.21 352.714 151.31C352.714 149.41 353.157 147.7 354.044 146.18C354.956 144.635 356.185 143.419 357.73 142.532C359.275 141.62 361.049 141.164 363.05 141.164C365.026 141.164 366.787 141.62 368.332 142.532C369.877 143.419 371.093 144.622 371.98 146.142C372.892 147.662 373.348 149.385 373.348 151.31C373.348 153.21 372.892 154.933 371.98 156.478C371.093 157.998 369.877 159.214 368.332 160.126C366.787 161.013 365.026 161.456 363.05 161.456ZM363.05 157.732C364.241 157.732 365.279 157.453 366.166 156.896C367.053 156.313 367.737 155.541 368.218 154.578C368.699 153.615 368.94 152.526 368.94 151.31C368.94 150.119 368.699 149.043 368.218 148.08C367.737 147.092 367.053 146.319 366.166 145.762C365.279 145.179 364.241 144.888 363.05 144.888C361.834 144.888 360.783 145.179 359.896 145.762C359.035 146.319 358.351 147.079 357.844 148.042C357.363 149.005 357.122 150.094 357.122 151.31C357.122 152.501 357.363 153.59 357.844 154.578C358.351 155.541 359.035 156.313 359.896 156.896C360.783 157.453 361.834 157.732 363.05 157.732ZM393.072 161V149.828C393.072 148.156 393.452 146.674 394.212 145.382C394.972 144.065 396.048 143.039 397.442 142.304C398.835 141.544 400.469 141.164 402.344 141.164C404.218 141.164 405.84 141.544 407.208 142.304C408.601 143.039 409.678 144.065 410.438 145.382C411.198 146.674 411.578 148.156 411.578 149.828V161H407.246V149.866C407.246 148.878 407.018 148.017 406.562 147.282C406.106 146.522 405.498 145.939 404.738 145.534C404.003 145.103 403.192 144.888 402.306 144.888C401.444 144.888 400.634 145.103 399.874 145.534C399.139 145.939 398.544 146.522 398.088 147.282C397.657 148.017 397.442 148.878 397.442 149.866V161H393.072Z" fill="white"/>
</svg>
